<?xml version="1.0" standalone="no"?>
<!DOCTYPE svg PUBLIC "-//W3C//DTD SVG 20010904//EN"
 "http://www.w3.org/TR/2001/REC-SVG-20010904/DTD/svg10.dtd">
<svg version="1.0" xmlns="http://www.w3.org/2000/svg"
 width="1200.000000pt" height="1200.000000pt" viewBox="0 0 1200.000000 1200.000000"
 preserveAspectRatio="xMidYMid meet">
<metadata>
Created by potrace 1.14, written by Peter Selinger 2001-2017
</metadata>
<g transform="translate(0.000000,1200.000000) scale(0.100000,-0.100000)"
fill="#000000" stroke="none">
<path d="M0 6000 l0 -5140 6000 0 6000 0 0 5140 0 5140 -6000 0 -6000 0 0
-5140z m8530 620 l0 -1800 -258 0 -259 0 -42 90 c-24 50 -45 90 -47 90 -2 0
-26 -13 -52 -30 -322 -198 -679 -229 -1029 -90 -326 130 -586 410 -702 756
-30 88 -61 240 -61 295 l0 29 313 0 312 0 12 -59 c14 -77 70 -192 125 -258
123 -147 285 -223 478 -223 169 0 310 58 431 179 121 121 179 262 179 431 0
169 -58 310 -179 431 -121 121 -262 179 -431 179 -195 0 -355 -76 -482 -228
-53 -64 -106 -174 -121 -250 l-12 -62 -312 0 -313 0 0 29 c0 55 31 207 61 295
145 434 507 749 949 827 101 18 317 15 406 -4 137 -31 283 -92 382 -159 l42
-29 0 681 0 680 305 0 305 0 0 -1800z m850 -90 c4 -585 7 -670 21 -706 79
-195 237 -340 425 -388 79 -20 219 -20 297 0 189 49 350 194 420 380 22 58 22
66 27 719 l5 660 303 3 302 2 0 -1276 c0 -1240 -1 -1279 -20 -1375 -65 -319
-245 -588 -512 -766 -206 -137 -425 -203 -672 -203 -246 0 -464 65 -666 198
-310 204 -516 553 -537 910 l-6 102 290 0 291 0 11 -74 c6 -41 20 -98 31 -127
67 -169 229 -306 420 -356 87 -22 245 -22 330 1 161 43 296 151 367 293 51
101 65 180 61 346 l-3 127 -72 -54 c-87 -66 -170 -107 -278 -138 -107 -30
-354 -33 -485 -4 -363 79 -673 317 -835 643 -55 110 -82 191 -106 316 -18 90
-19 150 -19 768 l0 669 303 -2 302 -3 5 -665z"/>
</g>
</svg>
